<svg width="52" height="52" viewBox="0 0 52 52" fill="none" xmlns="http://www.w3.org/2000/svg">
<path d="M40.7261 0.00537109H11.6609C5.43452 0.00537109 0.387024 5.05287 0.387024 11.2793V40.3444C0.387024 46.5708 5.43452 51.6183 11.6609 51.6183H40.7261C46.9525 51.6183 52 46.5708 52 40.3444V11.2793C52 5.05287 46.9525 0.00537109 40.7261 0.00537109Z" fill="black"/>
<path fill-rule="evenodd" clip-rule="evenodd" d="M31.7681 22.3044C33.4967 23.5344 35.5668 24.1915 37.6877 24.1835V19.9765C37.2707 19.9776 36.855 19.933 36.4477 19.8432V23.1948C34.3221 23.1986 32.2489 22.534 30.5211 21.2947V29.9472C30.5158 31.367 30.1268 32.759 29.3952 33.9754C28.6637 35.1918 27.6169 36.1875 26.3658 36.8567C25.1147 37.5259 23.706 37.8438 22.289 37.7766C20.8721 37.7094 19.4997 37.2597 18.3174 36.4752C19.411 37.5827 20.8083 38.3404 22.3325 38.6525C23.8566 38.9646 25.439 38.8169 26.8793 38.2283C28.3195 37.6397 29.5529 36.6365 30.4232 35.3458C31.2935 34.0552 31.7615 32.5351 31.7681 30.978V22.3044ZM33.3023 18.0132C32.4232 17.0595 31.8838 15.8417 31.7681 14.5493V14.0024H30.5911C30.7366 14.8239 31.0532 15.6055 31.5203 16.2966C31.9873 16.9875 32.5945 17.5724 33.3023 18.0132ZM21.0425 33.1446C20.6346 32.6107 20.3846 31.9729 20.321 31.3038C20.2575 30.6347 20.3828 29.9612 20.6828 29.3598C20.9828 28.7585 21.4455 28.2536 22.0181 27.9025C22.5907 27.5514 23.2503 27.3683 23.9218 27.3739C24.2926 27.3737 24.6611 27.4305 25.0147 27.5422V23.1948C24.6014 23.1401 24.1846 23.1167 23.7677 23.1247V26.5044C22.9068 26.232 21.975 26.294 21.1577 26.6779C20.3403 27.0619 19.6973 27.7396 19.3565 28.5765C19.0157 29.4133 19.0021 30.3479 19.3184 31.1943C19.6347 32.0408 20.2577 32.737 21.0635 33.1446H21.0425Z" fill="#EE1D52"/>
<path fill-rule="evenodd" clip-rule="evenodd" d="M30.5204 21.2666C32.2483 22.5059 34.3214 23.1706 36.4471 23.1668V19.8152C35.236 19.5589 34.1358 18.9286 33.3017 18.0132C32.5939 17.5724 31.9868 16.9875 31.5196 16.2966C31.0526 15.6055 30.736 14.8239 30.5905 14.0024H27.4941V30.978C27.4912 31.7293 27.2533 32.4609 26.8137 33.0701C26.3742 33.6792 25.7551 34.1353 25.0433 34.3743C24.3316 34.6133 23.563 34.6233 22.8453 34.4027C22.1276 34.1822 21.497 33.7422 21.042 33.1446C20.3208 32.7804 19.7431 32.1836 19.4024 31.4505C19.0616 30.7174 18.9776 29.8908 19.1638 29.1041C19.35 28.3173 19.7956 27.6163 20.4287 27.1141C21.0617 26.6119 21.8454 26.3378 22.6532 26.3362C23.0239 26.3373 23.3922 26.394 23.7461 26.5044V23.1247C22.2172 23.1615 20.7323 23.6442 19.4736 24.5137C18.215 25.3832 17.2373 26.6016 16.6608 28.0194C16.0843 29.4371 15.9338 30.9925 16.228 32.4946C16.5221 33.9967 17.2481 35.3802 18.3168 36.4752C19.4993 37.2654 20.8739 37.7198 22.294 37.7898C23.7142 37.8599 25.1267 37.5432 26.3812 36.8733C27.6357 36.2034 28.6852 35.2055 29.4178 33.9858C30.1504 32.7661 30.5388 31.3703 30.5415 29.9472L30.5204 21.2666Z" fill="white"/>
<path fill-rule="evenodd" clip-rule="evenodd" d="M36.4475 19.8143V18.9098C35.3353 18.9146 34.2445 18.6034 33.302 18.0123C34.1341 18.9304 35.2352 19.5612 36.4475 19.8143ZM30.5909 14.0016C30.5909 13.8403 30.5418 13.672 30.5208 13.5108V12.9639H26.2474V29.9464C26.2437 30.8973 25.8632 31.8079 25.1894 32.4783C24.5157 33.1488 23.6037 33.5243 22.6536 33.5224C22.0942 33.5252 21.5421 33.3955 21.0423 33.1438C21.4974 33.7413 22.128 34.1813 22.8457 34.4019C23.5634 34.6225 24.332 34.6125 25.0437 34.3735C25.7555 34.1345 26.3746 33.6784 26.8141 33.0693C27.2536 32.4601 27.4915 31.7285 27.4945 30.9771V14.0016H30.5909ZM23.7464 23.1169V22.1563C21.988 21.9172 20.2005 22.2812 18.6752 23.1892C17.1499 24.0971 15.9768 25.4953 15.3472 27.1559C14.7175 28.8165 14.6682 30.6416 15.2076 32.3339C15.7469 34.026 16.843 35.4855 18.3172 36.4744C17.2566 35.3768 16.5384 33.9939 16.2502 32.4946C15.962 30.9952 16.1164 29.4442 16.6944 28.0312C17.2726 26.6183 18.2493 25.4043 19.5054 24.5378C20.7614 23.6714 22.2424 23.1898 23.7675 23.152L23.7464 23.1169Z" fill="#69C9D0"/>
</svg>
