<svg width="52" height="52" viewBox="0 0 52 52" fill="none" xmlns="http://www.w3.org/2000/svg">
<path d="M44.0646 0H7.93549C3.65973 0 0.193542 3.46619 0.193542 7.74195V43.871C0.193542 48.1468 3.65973 51.613 7.93549 51.613H44.0646C48.3403 51.613 51.8065 48.1468 51.8065 43.871V7.74195C51.8065 3.46619 48.3403 0 44.0646 0Z" fill="#37AEE2"/>
<path d="M20.2541 40.726C19.1452 40.726 19.246 40.3228 18.9436 39.3147L15.7178 28.73L40.4154 14.2139" fill="#C8DAEA"/>
<path d="M20.254 40.7258C20.9597 40.7258 21.3629 40.3226 21.8669 39.9193L26.4032 35.5847L20.7581 32.1572" fill="#A9C9DD"/>
<path d="M20.7581 32.1573L34.3669 42.1372C35.7782 43.0444 36.9879 42.5404 37.3911 40.7259L42.9355 14.7178C43.4395 12.5 42.0282 11.492 40.5161 12.1976L8.15723 24.6976C6.04029 25.5041 6.04029 26.8146 7.754 27.3186L16.1209 29.9396L35.2742 17.742C36.1815 17.238 36.9879 17.4396 36.3831 18.1452" fill="#F6FBFE"/>
</svg>
