<svg width="52" height="52" viewBox="0 0 52 52" fill="none" xmlns="http://www.w3.org/2000/svg">
<path d="M43.871 0H7.74195C3.46619 0 0 3.46619 0 7.74195V43.871C0 48.1468 3.46619 51.613 7.74195 51.613H43.871C48.1468 51.613 51.613 48.1468 51.613 43.871V7.74195C51.613 3.46619 48.1468 0 43.871 0Z" fill="black"/>
<path d="M43.871 0H7.74195C3.46619 0 0 3.46619 0 7.74195V43.871C0 48.1468 3.46619 51.613 7.74195 51.613H43.871C48.1468 51.613 51.613 48.1468 51.613 43.871V7.74195C51.613 3.46619 48.1468 0 43.871 0Z" fill="url(#paint0_radial_88_16)"/>
<path d="M43.871 0H7.74195C3.46619 0 0 3.46619 0 7.74195V43.871C0 48.1468 3.46619 51.613 7.74195 51.613H43.871C48.1468 51.613 51.613 48.1468 51.613 43.871V7.74195C51.613 3.46619 48.1468 0 43.871 0Z" fill="url(#paint1_linear_88_16)"/>
<path d="M33.1654 10.2822H18.4476C13.938 10.2822 10.2823 13.938 10.2823 18.4476V33.1653C10.2823 37.6749 13.938 41.3307 18.4476 41.3307H33.1654C37.675 41.3307 41.3307 37.6749 41.3307 33.1653V18.4476C41.3307 13.938 37.675 10.2822 33.1654 10.2822Z" stroke="white" stroke-width="6.03262"/>
<path d="M25.8065 33.0645C29.815 33.0645 33.0645 29.8149 33.0645 25.8064C33.0645 21.7979 29.815 18.5483 25.8065 18.5483C21.798 18.5483 18.5484 21.7979 18.5484 25.8064C18.5484 29.8149 21.798 33.0645 25.8065 33.0645Z" stroke="white" stroke-width="6.03262"/>
<path d="M34.9799 17.238C35.3139 17.238 35.5847 16.9672 35.5847 16.6332C35.5847 16.2991 35.3139 16.0283 34.9799 16.0283C34.6459 16.0283 34.3751 16.2991 34.3751 16.6332C34.3751 16.9672 34.6459 17.238 34.9799 17.238Z" stroke="white" stroke-width="6.03262"/>
<defs>
<radialGradient id="paint0_radial_88_16" cx="0" cy="0" r="1" gradientUnits="userSpaceOnUse" gradientTransform="translate(20.6452 51.613) scale(51.613)">
<stop offset="0.1" stop-color="#FFDD55"/>
<stop offset="0.5" stop-color="#FF543E"/>
<stop offset="1" stop-color="#C837AB"/>
</radialGradient>
<linearGradient id="paint1_linear_88_16" x1="0" y1="0" x2="10.3226" y2="51.613" gradientUnits="userSpaceOnUse">
<stop offset="0.1" stop-color="#3771C8"/>
<stop offset="0.5" stop-color="#6600FF" stop-opacity="0"/>
</linearGradient>
</defs>
</svg>
